<svg id="Layer_1" data-name="Layer 1" xmlns="http://www.w3.org/2000/svg" viewBox="0 0 409.67 205"><defs><style>.cls-1{fill:#f7901e;}.cls-2{fill:#204ca1;}</style></defs><title>logo_blue</title><path class="cls-1" d="M275.86,51.3a18.49,18.49,0,1,1,18.48-18.49A18.52,18.52,0,0,1,275.86,51.3Z"/><path class="cls-2" d="M330.28,129h-20l-4.73-43.39h-1.06L289.33,129H262.44L247.3,85.61h-1.06L241.52,129h-20s4-36.5,5.64-51.26C228.65,64,235.84,57,248.5,57h9.08l17.92,50.63h.77L294.19,57h9c12.6,0,19.79,7,21.37,20.74C326.18,92,330.28,129,330.28,129ZM100.58,57l34.29,72H109.31l-6.45-15.41H67.21L60.75,129H36.89S54,93.59,59.83,80.64C66.7,65.43,72.57,57,86.83,57ZM84.64,72l-12,28.19h24.8L85.42,72Zm129.78,36.66c0,12.69-9.44,20.36-27.12,20.36H140.11V77.24C140.11,65.81,146.7,57,161,57H185.3c16.8,0,24.85,6.77,24.85,18.3,0,7.69-4.88,12.69-11.59,15.13V91C203.31,91.55,214.42,96.57,214.42,108.64ZM179.1,85.94c5.49,0,9.58-2.3,9.58-7.55,0-4.65-3.36-7.56-9.58-7.56H161.71V85.94ZM180,115.2c6.54,0,11.41-2.57,11.41-8.34,0-6.15-5.16-8.46-11.41-8.46H161.71v16.8Z"/><path class="cls-2" d="M140.11,153.07h7.79c5.73,0,7.64,3,7.64,6.55a5.94,5.94,0,0,1-2.33,4.74A6,6,0,0,1,156.3,170c0,3.85-2.1,6.94-8.21,6.94h-8Zm7.92,3.18h-4.55V163h4.8c2.93,0,3.66-1.72,3.66-3.38S151.37,156.25,148,156.25Zm-4.55,17.5h4.74c3.75,0,4.48-1.91,4.48-3.76,0-2.64-1.17-3.82-4.42-3.82h-4.8Z"/><path class="cls-2" d="M162.89,172.28c0,1.5,1.11,2,2.57,2a8.59,8.59,0,0,0,3.69-.76V161h3.28v15.91h-2.2l-.31-.89a8.27,8.27,0,0,1-4.46,1.3c-3.91,0-5.85-1.91-5.85-5.12V161h3.28Z"/><path class="cls-2" d="M178.35,153.48a2.23,2.23,0,1,1-2.22,2.23A2.22,2.22,0,0,1,178.35,153.48Zm2.23,23.86c-2.52,0-3.85-1-3.85-3.85V161h3.21v12.57c0,.57.32.73,1.24.73v3Z"/><path class="cls-2" d="M188.82,177.34c-2.52,0-3.85-1-3.85-3.85V153.07h3.21v20.52c0,.57.32.73,1.24.73v3Z"/><path class="cls-2" d="M206.25,176.93h-2.13l-.32-.89a8.93,8.93,0,0,1-4.36,1.3c-5.37,0-6.9-3.37-6.9-8.36s1.53-8.37,6.9-8.37a8.34,8.34,0,0,1,3.6.86v-8.4h3.21Zm-6.81-13.3c-3.11,0-3.59,2.45-3.59,5.35s.48,5.34,3.59,5.34a8,8,0,0,0,3.6-.76v-9.2a6.4,6.4,0,0,0-1.18-.41A9.46,9.46,0,0,0,199.44,163.63Z"/><path class="cls-2" d="M212.17,153.48a2.23,2.23,0,1,1-2.22,2.23A2.22,2.22,0,0,1,212.17,153.48Zm2.23,23.86c-2.52,0-3.85-1-3.85-3.85V161h3.21v12.57c0,.57.32.73,1.24.73v3Z"/><path class="cls-2" d="M228.33,165.67c0-1.5-1.11-2-2.57-2a8.59,8.59,0,0,0-3.69.76v12.54h-3.28V161H221l.31.89a8.27,8.27,0,0,1,4.46-1.3c3.91,0,5.85,1.91,5.85,5.12v11.2h-3.28Z"/><path class="cls-2" d="M241.62,173a10,10,0,0,1-1.11,0c-.38.26-.8.64-.8,1s.16.51.57.57l5.06.6c3,.35,4.58,1.59,4.58,4.55,0,4-3.88,5.63-8.3,5.63s-7.22-1.52-7.22-5.18a4.29,4.29,0,0,1,2.67-3.85v0a2.93,2.93,0,0,1-.57-1.88,3.1,3.1,0,0,1,1.11-2.29c-1.75-1.11-2.35-3.05-2.35-5.25,0-3.37,1.46-6.2,6.36-6.2a9.51,9.51,0,0,1,2.86.41h5.13v2.16l-2.17.61a7.77,7.77,0,0,1,.54,3C248,170.18,246.55,173,241.62,173Zm-1,4.45c-1.68.54-3,1.34-3,2.64,0,1.72,1.34,2.17,4,2.17s5-.58,5-2.62c0-1.11-.48-1.55-1.85-1.71Zm1-7.48c2.93,0,3.28-1.53,3.28-3.18s-.35-3.18-3.28-3.18-3.24,1.53-3.24,3.18S238.69,170,241.62,170Z"/><path class="cls-2" d="M273.19,153.07h3.66l-8.47,24.27h-2.32l-8.46-24.27h3.66l6,18.67Z"/><path class="cls-2" d="M282,163.63a17.82,17.82,0,0,0-5.44,1v-3a16.92,16.92,0,0,1,5.44-.95c4.9,0,6.17,2.23,6.17,5.53v10.79H286l-.29-.83a9.07,9.07,0,0,1-4.45,1.24c-4.42,0-5.79-2.67-5.79-5.44,0-2.51,1.17-4.74,5.88-5.12l3.6-.29v-.32C284.94,164.46,284.3,163.63,282,163.63Zm-.7,5.85c-2,.19-2.58,1.31-2.58,2.42s.26,2.42,2.58,2.42a7.72,7.72,0,0,0,3.63-1v-4.17Z"/><path class="cls-2" d="M296.33,177.34c-2.52,0-3.85-1-3.85-3.85V153.07h3.21v20.52c0,.57.32.73,1.24.73v3Z"/><path class="cls-2" d="M303.49,172.28c0,1.5,1.11,2,2.57,2a8.68,8.68,0,0,0,3.7-.76V161H313v15.91h-2.19l-.32-.89a8.27,8.27,0,0,1-4.46,1.3c-3.91,0-5.85-1.91-5.85-5.12V161h3.28Z"/><path class="cls-2" d="M320,170.5c.26,2.2,1.18,3.82,3.73,3.82a12.35,12.35,0,0,0,5.47-1.15v3.09a13,13,0,0,1-5.47,1.08c-5.38,0-7.1-3.34-7.1-8.36s1.72-8.37,7.1-8.37c5.56,0,6.33,3.91,6.33,8.37v1.52Zm0-2.83h6.71c0-2.1-.35-4-2.95-4S320.22,165.38,320,167.67Z"/><path class="cls-2" d="M344.17,116.16a6.58,6.58,0,1,1-6.58,6.58A6.59,6.59,0,0,1,344.17,116.16Zm0,12.21a5.63,5.63,0,1,0-5.62-5.63A5.63,5.63,0,0,0,344.17,128.37Zm-1.43-1.86h-.95v-7.59h2.91c1.72,0,2.39.74,2.39,2.11a2,2,0,0,1-1.91,2.15l2.27,3.33h-1.08l-2.27-3.33h-1.36Zm0-4.18H344c1,0,2.18,0,2.18-1.3,0-1-.89-1.26-1.7-1.26h-1.7Z"/></svg>